<svg id="图层_1" data-name="图层 1" xmlns="http://www.w3.org/2000/svg" xmlns:xlink="http://www.w3.org/1999/xlink" viewBox="0 0 44 44"><defs><style>.cls-1{fill:#348fe4;}.cls-2{fill:#bddaff;}.cls-3{fill:url(#未命名的渐变_122);}.cls-4{fill:#fff;}.cls-5{fill:url(#未命名的渐变_122-2);}</style><linearGradient id="未命名的渐变_122" x1="14.8669" y1="4917.5862" x2="12.6489" y2="4914.0708" gradientTransform="matrix(1, 0, 0, -1, 0, 4936.6426)" gradientUnits="userSpaceOnUse"><stop offset="0" stop-color="#5fabf5"/><stop offset="0.75" stop-color="#77cbff"/><stop offset="0.99" stop-color="#5ebdff"/></linearGradient><linearGradient id="未命名的渐变_122-2" x1="-12546.0846" y1="3852.6694" x2="-12548.3025" y2="3849.1517" gradientTransform="matrix(-1, 0, 0, 1, -12516.9482, -3827.73)" xlink:href="#未命名的渐变_122"/></defs><title>pingcode-wiki</title><rect class="cls-1" width="44" height="44" rx="4"/><path class="cls-2" d="M18.3275,28.3024l-6.6852-6.683a3.0126,3.0126,0,0,1-.0048-4.26l.0048-.0047,1.43-1.43a.1415.1415,0,0,1,.2-.0021l.002.0021,5.0667,5.0711a5.1633,5.1633,0,0,1,.0052,7.3019l-.0052.0052h-.0135Z"/><path class="cls-3" d="M13.6941,15.6952h0l-1.9979,1.9979c-.0539.0449-.1145.0831-.1662.1347a2.5908,2.5908,0,0,0,0,3.6614l3.6726,3.6726a2.6987,2.6987,0,0,1-.1863-3.6165L16.85,19.4868h0"/><path class="cls-4" d="M20.7677,8.7833l-.2447-.2358a.0427.0427,0,0,0-.06-.0025l-.0026.0025L13.501,15.5066h0l-1.9979,1.998c-.0539.0449-.1145.083-.1661.1347a2.59,2.59,0,0,0,0,3.6613l3.6748,3.6726a2.5862,2.5862,0,0,1-.0041-3.6573l.0041-.0041,1.83-1.83h0L19.9842,16.34h0l.7835-.7812A4.7928,4.7928,0,0,0,20.7677,8.7833Z"/><path class="cls-2" d="M25.6749,15.6907l6.7077,6.7077a2.9789,2.9789,0,0,1,.003,4.2128l-.003.003L30.93,28.0779a.1437.1437,0,0,1-.2,0l-5.0667-5.0667a5.1631,5.1631,0,0,1-.0074-7.3018l.0074-.0075h0Z"/><path class="cls-5" d="M30.3083,28.3024h0l1.9957-1.9957c.0561-.0472.1145-.0853.1661-.137a2.5838,2.5838,0,0,0,.0051-3.6541l-.0051-.005-3.6636-3.6883a2.6938,2.6938,0,0,1,.1863,3.6165L27.161,24.4973h0"/><path class="cls-4" d="M23.237,35.2121l.2425.2424a.0449.0449,0,0,0,.0606,0l6.9591-6.9591h0l1.9979-1.9979c.0539-.0472.1145-.0831.1661-.137a2.5883,2.5883,0,0,0,0-3.6591l-3.6614-3.6838a2.5882,2.5882,0,0,1,0,3.6591L27.17,24.5085h0l-3.1428,3.1428h0l-.79.7858a4.7883,4.7883,0,0,0-.0033,6.7716Z"/></svg>